<?xml version="1.0" encoding="UTF-8" standalone="no"?>
<!-- Created by diasvg.py -->
<svg width="58.100cm" height="48.560cm" viewBox="-8.050 -12.510 58.100 48.560"
 xmlns="http://www.w3.org/2000/svg"
 xmlns:xlink="http://www.w3.org/1999/xlink">
<!-- Layer: Background -->
<g id="Background">
<!-- Standard - Text -->
<!-- Flowchart - Box -->
<rect x="9.000" y="-3.000" width="8.372" height="7.000" fill="#DEDDDA" stroke="#000000" stroke-width="0.100"  rx="0.000" />
<!-- Flowchart - Box -->
<rect x="46.000" y="-8.000" width="4.000" height="44.000" fill="#FFFFFF" stroke="#000000" stroke-width="0.100"  rx="0.000" />
<!-- Flowchart - Box -->
<rect x="-8.000" y="-8.000" width="4.000" height="43.000" fill="#FFFFFF" stroke="#000000" stroke-width="0.100"  rx="0.000" />
<!-- Flowchart - Box -->
<rect x="14.000" y="9.000" width="8.373" height="13.000" fill="#DEDDDA" stroke="#000000" stroke-width="0.100"  rx="0.000" />
<!-- Flowchart - Box -->
<rect x="14.000" y="30.000" width="8.373" height="6.000" fill="#DEDDDA" stroke="#000000" stroke-width="0.100"  rx="0.000" />
<!-- Standard - Line -->
<line x1="-4.000" y1="2.750" x2="8.535" y2="-1.107" stroke="#000000" stroke-width="0.100" />
<polygon fill="#000000" stroke="#000000" stroke-width="0.100"  points="8.893,-1.217 8.489,-0.831 8.535,-1.107 8.342,-1.309 "/>
<!-- Standard - Text -->
<!-- Standard - Line -->
<line x1="17.372" y1="-1.250" x2="45.518" y2="2.929" stroke="#000000" stroke-width="0.100" />
<polygon fill="#000000" stroke="#000000" stroke-width="0.100"  points="45.889,2.984 45.358,3.157 45.518,2.929 45.432,2.663 "/>
<!-- Standard - Text -->
<!-- Standard - Text -->
<!-- Standard - Line -->
<line x1="-4.000" y1="13.500" x2="13.514" y2="12.284" stroke="#000000" stroke-width="0.100" />
<polygon fill="#000000" stroke="#000000" stroke-width="0.100"  points="13.888,12.258 13.407,12.542 13.514,12.284 13.372,12.043 "/>
<!-- Standard - Line -->
<line x1="22.373" y1="15.500" x2="45.514" y2="14.031" stroke="#000000" stroke-width="0.100" />
<polygon fill="#000000" stroke="#000000" stroke-width="0.100"  points="45.888,14.007 45.405,14.288 45.514,14.031 45.374,13.789 "/>
<!-- Standard - Text -->
<!-- Standard - Text -->
<!-- Standard - Line -->
<line x1="-4.000" y1="13.500" x2="13.533" y2="18.614" stroke="#000000" stroke-width="0.100" />
<polygon fill="#000000" stroke="#000000" stroke-width="0.100"  points="13.893,18.719 13.343,18.819 13.533,18.614 13.483,18.339 "/>
<!-- Standard - Line -->
<line x1="16.093" y1="22.000" x2="16.093" y2="29.513" stroke="#000000" stroke-width="0.100" />
<polygon fill="#000000" stroke="#000000" stroke-width="0.100"  points="16.093,29.888 15.843,29.388 16.093,29.513 16.343,29.388 "/>
<!-- Standard - Line -->
<line x1="-4.000" y1="24.250" x2="13.548" y2="31.318" stroke="#000000" stroke-width="0.100" />
<polygon fill="#000000" stroke="#000000" stroke-width="0.100"  points="13.896,31.458 13.339,31.503 13.548,31.318 13.526,31.040 "/>
<!-- Standard - Text -->
<!-- Standard - Text -->
<!-- Standard - Line -->
<line x1="22.372" y1="33.000" x2="45.539" y2="25.156" stroke="#000000" stroke-width="0.100" />
<polygon fill="#000000" stroke="#000000" stroke-width="0.100"  points="45.894,25.036 45.501,25.433 45.539,25.156 45.340,24.959 "/>
<!-- Standard - Line -->
<line x1="-4.000" y1="2.750" x2="8.514" y2="2.269" stroke="#000000" stroke-width="0.100" />
<polygon fill="#000000" stroke="#000000" stroke-width="0.100"  points="8.888,2.254 8.398,2.523 8.514,2.269 8.379,2.024 "/>
<!-- Standard - Text -->
<!-- Standard - Text -->
<!-- Standard - Line -->
<line x1="17.372" y1="2.250" x2="45.513" y2="2.987" stroke="#000000" stroke-width="0.100" />
<polygon fill="#000000" stroke="#000000" stroke-width="0.100"  points="45.888,2.997 45.382,3.234 45.513,2.987 45.395,2.734 "/>
<!-- Standard - Text -->
<!-- Standard - PolyLine -->
<polyline fill="none" stroke="#000000" stroke-width="0.100"  points="-4.000,13.500 13.516,15.446 "/>
<polygon fill="#000000" stroke="#000000" stroke-width="0.100"  points="13.889,15.488 13.364,15.681 13.516,15.446 13.420,15.184 "/>
<!-- Standard - Text -->
<!-- Standard - Text -->
<!-- Standard - Text -->
<!-- Standard - Line -->
<line x1="-4.000" y1="24.250" x2="13.577" y2="34.259" stroke="#000000" stroke-width="0.100" />
<polygon fill="#000000" stroke="#000000" stroke-width="0.100"  points="13.903,34.445 13.345,34.415 13.577,34.259 13.592,33.980 "/>
</g>
</svg>