<?xml version="1.0" encoding="UTF-8" standalone="no"?>
<!DOCTYPE svg PUBLIC "-//W3C//DTD SVG 1.1//EN" "http://www.w3.org/Graphics/SVG/1.1/DTD/svg11.dtd">
<svg width="66cm" height="39cm" viewBox="-221 -171 1302 772" xmlns="http://www.w3.org/2000/svg" xmlns:xlink="http://www.w3.org/1999/xlink">
  <g id="Background">
    <text font-size="28.2222" style="fill: #000000; fill-opacity: 1; stroke: none;text-anchor:middle;font-family:Sans;font-style:italic;font-weight:700" x="420" y="-140">
      <tspan x="420" y="-140">Awareness System Architecture</tspan>
    </text>
    <g>
      <rect style="fill: #deddda; fill-opacity: 1; stroke-opacity: 1; stroke-width: 2; stroke: #000000" x="460" y="160" width="160" height="120" rx="0" ry="0"/>
      <text font-size="12.8" style="fill: #000000; fill-opacity: 1; stroke: none;text-anchor:middle;font-family:sans-serif;font-style:normal;font-weight:normal" x="540" y="225.7">
        <tspan x="540" y="225.7">Global Awareness</tspan>
      </text>
    </g>
    <g>
      <rect style="fill: #deddda; fill-opacity: 1; stroke-opacity: 1; stroke-width: 2; stroke: #000000" x="160" y="160" width="160" height="120" rx="0" ry="0"/>
      <text font-size="12.8" style="fill: #000000; fill-opacity: 1; stroke: none;text-anchor:middle;font-family:sans-serif;font-style:normal;font-weight:normal" x="240" y="225.7">
        <tspan x="240" y="225.7">Object Fusion</tspan>
      </text>
    </g>
    <g>
      <rect style="fill: #deddda; fill-opacity: 1; stroke-opacity: 1; stroke-width: 2; stroke: #000000" x="480" y="-20" width="160" height="120" rx="0" ry="0"/>
      <text font-size="12.8" style="fill: #000000; fill-opacity: 1; stroke: none;text-anchor:middle;font-family:sans-serif;font-style:normal;font-weight:normal" x="560" y="45.7">
        <tspan x="560" y="45.7">Local Awareness</tspan>
      </text>
    </g>
    <g>
      <rect style="fill: #deddda; fill-opacity: 1; stroke-opacity: 1; stroke-width: 2; stroke: #000000" x="160" y="380" width="160" height="120" rx="0" ry="0"/>
      <text font-size="12.8" style="fill: #000000; fill-opacity: 1; stroke: none;text-anchor:middle;font-family:sans-serif;font-style:normal;font-weight:normal" x="240" y="445.7">
        <tspan x="240" y="445.7">Object Prediction</tspan>
      </text>
    </g>
    <g>
      <polyline style="fill: none; stroke-opacity: 1; stroke-width: 2; stroke: #000000" points="320,220 390,220 390,220 450.264,220 "/>
      <polygon style="fill: #000000; fill-opacity: 1; stroke-opacity: 1; stroke-width: 2; stroke: #000000" fill-rule="evenodd" points="457.764,220 447.764,225 450.264,220 447.764,215 "/>
    </g>
    <g>
      <polyline style="fill: none; stroke-opacity: 1; stroke-width: 2; stroke: #000000" points="240,280 240,330 240,330 240,370.264 "/>
      <polygon style="fill: #000000; fill-opacity: 1; stroke-opacity: 1; stroke-width: 2; stroke: #000000" fill-rule="evenodd" points="240,377.764 235,367.764 240,370.264 245,367.764 "/>
    </g>
    <g>
      <polyline style="fill: none; stroke-opacity: 1; stroke-width: 2; stroke: #000000" points="280,380 280,330.504 280,330.504 280,289.736 "/>
      <polygon style="fill: #000000; fill-opacity: 1; stroke-opacity: 1; stroke-width: 2; stroke: #000000" fill-rule="evenodd" points="280,282.236 285,292.236 280,289.736 275,292.236 "/>
    </g>
    <g>
      <line style="fill: none; stroke-opacity: 1; stroke-width: 2; stroke: #000000" x1="320" y1="190" x2="472.211" y2="75.8416"/>
      <polygon style="fill: #000000; fill-opacity: 1; stroke-opacity: 1; stroke-width: 2; stroke: #000000" fill-rule="evenodd" points="478.211,71.3416 473.211,81.3416 472.211,75.8416 467.211,73.3416 "/>
    </g>
    <g>
      <line style="fill: none; stroke-opacity: 1; stroke-width: 2; stroke: #000000" x1="620" y1="220" x2="990.317" y2="258.981"/>
      <polygon style="fill: #000000; fill-opacity: 1; stroke-opacity: 1; stroke-width: 2; stroke: #000000" fill-rule="evenodd" points="997.776,259.766 987.308,263.692 990.317,258.981 988.355,253.747 "/>
    </g>
    <g>
      <line style="fill: none; stroke-opacity: 1; stroke-width: 2; stroke: #000000" x1="640" y1="40" x2="990.356" y2="88.6606"/>
      <polygon style="fill: #000000; fill-opacity: 1; stroke-opacity: 1; stroke-width: 2; stroke: #000000" fill-rule="evenodd" points="997.785,89.6924 987.192,93.2692 990.356,88.6606 988.568,83.3642 "/>
    </g>
    <g>
      <line style="fill: none; stroke-opacity: 1; stroke-width: 2; stroke: #000000" x1="-140" y1="75" x2="150.909" y2="186.515"/>
      <polygon style="fill: #000000; fill-opacity: 1; stroke-opacity: 1; stroke-width: 2; stroke: #000000" fill-rule="evenodd" points="157.912,189.2 146.785,190.289 150.909,186.515 150.364,180.952 "/>
    </g>
    <g>
      <rect style="fill: #ffffff; fill-opacity: 1; stroke-opacity: 1; stroke-width: 2; stroke: #000000" x="-220" y="-100" width="80" height="700" rx="0" ry="0"/>
      <text font-size="12.8" style="fill: #000000; fill-opacity: 1; stroke: none;text-anchor:middle;font-family:sans-serif;font-style:normal;font-weight:normal" x="-180" y="255.7">
        <tspan x="-180" y="255.7">Inputs</tspan>
      </text>
    </g>
    <g>
      <line style="fill: none; stroke-opacity: 1; stroke-width: 2; stroke: #000000" x1="-140" y1="250" x2="150.312" y2="220.969"/>
      <polygon style="fill: #000000; fill-opacity: 1; stroke-opacity: 1; stroke-width: 2; stroke: #000000" fill-rule="evenodd" points="157.775,220.222 148.322,226.193 150.312,220.969 147.327,216.242 "/>
    </g>
    <g>
      <rect style="fill: #ffffff; fill-opacity: 1; stroke-opacity: 1; stroke-width: 2; stroke: #000000" x="1000" y="-80" width="80" height="680" rx="0" ry="0"/>
      <text font-size="12.8" style="fill: #000000; fill-opacity: 1; stroke: none;text-anchor:middle;font-family:sans-serif;font-style:normal;font-weight:normal" x="1040" y="265.7">
        <tspan x="1040" y="265.7">Outputs</tspan>
      </text>
    </g>
    <text font-size="12.8" style="fill: #000000; fill-opacity: 1; stroke: none;text-anchor:start;font-family:sans-serif;font-style:normal;font-weight:normal" x="760" y="160">
      <tspan x="760" y="160">GlobalObjects</tspan>
    </text>
    <text font-size="12.8" style="fill: #000000; fill-opacity: 1; stroke: none;text-anchor:start;font-family:sans-serif;font-style:normal;font-weight:normal" x="800" y="20">
      <tspan x="800" y="20">LocalObjects</tspan>
    </text>
    <text font-size="12.8" style="fill: #000000; fill-opacity: 1; stroke: none;text-anchor:start;font-family:sans-serif;font-style:normal;font-weight:normal" x="440" y="304.5">
      <tspan x="440" y="304.5"></tspan>
    </text>
    <text font-size="12.8" style="fill: #000000; fill-opacity: 1; stroke: none;text-anchor:start;font-family:sans-serif;font-style:normal;font-weight:normal" x="40" y="100">
      <tspan x="40" y="100">EgoPose</tspan>
    </text>
    <g>
      <line style="fill: none; stroke-opacity: 1; stroke-width: 2; stroke: #000000" x1="-140" y1="75" x2="470.279" y2="40.5487"/>
      <polygon style="fill: #000000; fill-opacity: 1; stroke-opacity: 1; stroke-width: 2; stroke: #000000" fill-rule="evenodd" points="477.767,40.126 468.065,45.6817 470.279,40.5487 467.502,35.6976 "/>
    </g>
    <text font-size="12.8" style="fill: #000000; fill-opacity: 1; stroke: none;text-anchor:start;font-family:sans-serif;font-style:normal;font-weight:normal" x="20" y="20">
      <tspan x="20" y="20">EgoPose</tspan>
    </text>
    <text font-size="12.8" style="fill: #000000; fill-opacity: 1; stroke: none;text-anchor:start;font-family:sans-serif;font-style:normal;font-weight:normal" x="-80" y="200">
      <tspan x="-80" y="200">AwarenessInput:</tspan>
      <tspan x="-80" y="216">WiFi, Perception,P2P, etc.</tspan>
    </text>
  </g>
</svg>
